<svg width="25" height="25" viewBox="0 0 25 25" fill="none" xmlns="http://www.w3.org/2000/svg">
<path d="M12.5002 6.77075C13.1908 6.77075 13.8532 7.04512 14.3416 7.53349C14.83 8.02187 15.1043 8.68425 15.1043 9.37492C15.1043 9.7169 15.037 10.0555 14.9061 10.3715C14.7752 10.6874 14.5834 10.9745 14.3416 11.2163C14.0998 11.4582 13.8127 11.65 13.4967 11.7809C13.1808 11.9117 12.8421 11.9791 12.5002 11.9791C11.8095 11.9791 11.1471 11.7047 10.6587 11.2163C10.1704 10.728 9.896 10.0656 9.896 9.37492C9.896 8.68425 10.1704 8.02187 10.6587 7.53349C11.1471 7.04512 11.8095 6.77075 12.5002 6.77075ZM12.5002 2.08325C14.434 2.08325 16.2887 2.85148 17.6561 4.21893C19.0236 5.58638 19.7918 7.44105 19.7918 9.37492C19.7918 14.8437 12.5002 22.9166 12.5002 22.9166C12.5002 22.9166 5.2085 14.8437 5.2085 9.37492C5.2085 7.44105 5.97672 5.58638 7.34418 4.21893C8.71163 2.85148 10.5663 2.08325 12.5002 2.08325ZM12.5002 4.16659C11.1188 4.16659 9.79407 4.71532 8.81731 5.69207C7.84056 6.66882 7.29183 7.99358 7.29183 9.37492C7.29183 10.4166 7.29183 12.4999 12.5002 19.4895C17.7085 12.4999 17.7085 10.4166 17.7085 9.37492C17.7085 7.99358 17.1598 6.66882 16.183 5.69207C15.2063 4.71532 13.8815 4.16659 12.5002 4.16659Z" fill="#CDAE5D"/>
</svg>
