<svg width="15" height="21" viewBox="0 0 15 21" fill="none" xmlns="http://www.w3.org/2000/svg">
<path d="M7.50016 4.771C8.19083 4.771 8.85321 5.04536 9.34159 5.53374C9.82996 6.02211 10.1043 6.68449 10.1043 7.37516C10.1043 7.71715 10.037 8.05578 9.9061 8.37173C9.77523 8.68769 9.58341 8.97477 9.34159 9.21659C9.09977 9.45841 8.81269 9.65023 8.49673 9.7811C8.18078 9.91197 7.84215 9.97933 7.50016 9.97933C6.80949 9.97933 6.14711 9.70496 5.65874 9.21659C5.17036 8.72821 4.896 8.06583 4.896 7.37516C4.896 6.68449 5.17036 6.02211 5.65874 5.53374C6.14711 5.04536 6.80949 4.771 7.50016 4.771ZM7.50016 0.0834961C9.43403 0.0834961 11.2887 0.851723 12.6561 2.21918C14.0236 3.58663 14.7918 5.44129 14.7918 7.37516C14.7918 12.8439 7.50016 20.9168 7.50016 20.9168C7.50016 20.9168 0.208496 12.8439 0.208496 7.37516C0.208496 5.44129 0.976723 3.58663 2.34418 2.21918C3.71163 0.851723 5.56629 0.0834961 7.50016 0.0834961ZM7.50016 2.16683C6.11883 2.16683 4.79407 2.71556 3.81731 3.69231C2.84056 4.66907 2.29183 5.99383 2.29183 7.37516C2.29183 8.41683 2.29183 10.5002 7.50016 17.4897C12.7085 10.5002 12.7085 8.41683 12.7085 7.37516C12.7085 5.99383 12.1598 4.66907 11.183 3.69231C10.2063 2.71556 8.8815 2.16683 7.50016 2.16683Z" fill="#CDAE5D"/>
</svg>
