<svg width="77" height="77" viewBox="0 0 77 77" fill="none" xmlns="http://www.w3.org/2000/svg">
<path d="M23.2754 31.0854C23.5048 31.6814 23.451 32.3316 23.126 32.8933C22.8009 33.455 22.2311 33.8823 21.5418 34.0814C20.6995 34.3115 19.9183 34.6834 19.2431 35.1756C18.568 35.6678 18.0123 36.2707 17.6081 36.9494C16.5876 38.6038 15.8963 41.3248 16.5382 45.7666C16.6277 46.3909 16.4266 47.0202 15.979 47.5163C15.5314 48.0124 14.8741 48.3345 14.1517 48.4118C13.4292 48.4891 12.7008 48.3153 12.1267 47.9286C11.5526 47.5419 11.1798 46.9739 11.0903 46.3497C10.3661 41.3106 11.0409 37.5135 12.7691 34.7213C14.5248 31.8771 17.1966 30.3364 19.8026 29.5874C20.1445 29.4886 20.5055 29.4489 20.8651 29.4707C21.2247 29.4925 21.5758 29.5753 21.8984 29.7145C22.2209 29.8536 22.5085 30.0463 22.7448 30.2815C22.9811 30.5167 23.1614 30.7899 23.2754 31.0854ZM50.345 5.63857C50.696 5.54664 51.0221 5.39482 51.3041 5.19208C51.586 4.98935 51.818 4.73981 51.9864 4.45825C52.1548 4.17668 52.2561 3.86879 52.2843 3.5528C52.3126 3.23681 52.2672 2.91914 52.1509 2.61857C52.0345 2.31799 51.8496 2.04063 51.6071 1.80288C51.3645 1.56514 51.0693 1.37184 50.7388 1.23441C50.4082 1.09699 50.0492 1.01823 49.6828 1.00281C49.3165 0.987384 48.9502 1.0356 48.6058 1.14461C43.4596 2.62363 40.2556 6.27379 38.3683 10.1847C38.1149 10.7133 37.8825 11.2493 37.6716 11.7917C36.6438 10.1095 35.3288 8.57055 33.7708 7.22663C31.662 5.40063 29.1433 3.96664 26.3694 3.01282C23.5955 2.05901 20.6252 1.60553 17.641 1.68028C14.4589 1.75613 11.9187 3.9557 11.831 6.70043C11.7437 9.31322 12.2842 11.9133 13.4183 14.3365C14.5524 16.7598 16.2555 18.9536 18.42 20.7796C13.8115 21.6422 9.64679 23.7638 6.54223 26.8305C3.43767 29.8972 1.55821 33.746 1.182 37.8074L1.14909 38.1582C0.42479 45.9667 2.35039 53.7882 6.69028 60.6659L8.66535 63.7851C8.72022 63.8657 8.77508 63.9463 8.84092 64.0222L14.3272 70.6683C15.5707 72.173 17.1786 73.4255 19.0391 74.3388C20.8996 75.252 22.968 75.8041 25.1005 75.9566C27.233 76.1091 29.3783 75.8584 31.3873 75.2218C33.3963 74.5852 35.2206 73.5782 36.7334 72.2706C36.9657 72.0698 37.2416 71.9105 37.5451 71.8018C37.8487 71.6931 38.1741 71.6372 38.5027 71.6372C38.8314 71.6372 39.1567 71.6931 39.4603 71.8018C39.7639 71.9105 40.0398 72.0698 40.2721 72.2706C41.7849 73.5782 43.6092 74.5852 45.6182 75.2218C47.6271 75.8584 49.7725 76.1091 51.905 75.9566C54.0375 75.8041 56.1059 75.252 57.9664 74.3388C59.8269 73.4255 61.4348 72.173 62.6782 70.6683L68.1646 64.0269C68.2285 63.9494 68.2872 63.8687 68.3401 63.7851L70.3097 60.6659C74.6496 53.7882 76.5752 45.9667 75.8509 38.1582L75.8235 37.8074C75.5807 35.1896 74.7112 32.644 73.2701 30.3318C71.8291 28.0196 69.8479 25.9912 67.4521 24.3752C65.0563 22.7592 62.2981 21.5909 59.3523 20.9442C56.4066 20.2975 53.3375 20.1866 50.3395 20.6184L41.2486 21.9268C41.3035 18.6986 41.9619 15.0674 43.4377 12.005C44.9739 8.8052 47.2562 6.52978 50.3395 5.63857H50.345ZM31.472 21.3106L30.6271 21.1873C27.4054 20.6502 24.4447 19.2894 22.1288 17.2812C20.5437 15.9148 19.299 14.2826 18.4715 12.4849C17.6441 10.6872 17.2512 8.76222 17.3173 6.82843C17.3187 6.71943 17.3695 6.61524 17.4587 6.53816C17.5479 6.46108 17.6685 6.41724 17.7946 6.41601C20.033 6.35955 22.2612 6.69971 24.3417 7.41552C26.4222 8.13133 28.3111 9.20764 29.892 10.5781C33.2222 13.4556 34.8296 17.2527 34.7035 21.0309C34.702 21.1399 34.6513 21.2441 34.5621 21.3211C34.4729 21.3982 34.3523 21.4421 34.2261 21.4433C33.3054 21.4653 32.3842 21.4209 31.472 21.3106ZM29.6725 25.8567L30.6216 25.9941L34.8955 26.6104C37.2839 26.9543 39.7216 26.9543 42.11 26.6104L51.2393 25.2925C53.488 24.9685 55.7902 25.0516 57.9999 25.5367C60.2096 26.0218 62.2785 26.8982 64.0755 28.1104C65.8726 29.3227 67.3586 30.8443 68.4393 32.5788C69.52 34.3134 70.1719 36.223 70.3536 38.1866L70.3865 38.5374C71.0249 45.4286 69.3242 52.331 65.4927 58.4L63.6054 61.3865L58.2124 67.9094C57.4324 68.8539 56.4236 69.6404 55.2562 70.2139C54.0888 70.7874 52.7908 71.1343 51.4525 71.2304C50.1142 71.3265 48.7677 71.1695 47.5068 70.7704C46.2458 70.3712 45.1006 69.7395 44.1509 68.9191C43.4091 68.2775 42.5281 67.7686 41.5585 67.4213C40.5889 67.0741 39.5496 66.8953 38.5 66.8953C37.4504 66.8953 36.4111 67.0741 35.4415 67.4213C34.4718 67.7686 33.5909 68.2775 32.8491 68.9191C31.8994 69.7386 30.7546 70.3697 29.4942 70.7683C28.2338 71.167 26.888 71.3237 25.5504 71.2277C24.2128 71.1316 22.9155 70.785 21.7485 70.2119C20.5816 69.6389 19.5731 68.8532 18.7931 67.9094L13.4001 61.3865L11.5128 58.4C7.68126 52.331 5.98061 45.4286 6.61895 38.5374L6.65187 38.1866C6.83368 36.2234 7.48541 34.3143 8.56579 32.5801C9.64617 30.846 11.1316 29.3246 12.9281 28.1124C14.7245 26.9003 16.7927 26.0237 19.0017 25.5383C21.2107 25.0529 23.5124 24.9692 25.7607 25.2925L29.6725 25.8567Z" fill="#C0AF17" stroke="black"/>
</svg>
