<svg width="28" height="28" viewBox="0 0 28 28" fill="none" xmlns="http://www.w3.org/2000/svg">
<g clip-path="url(#clip0_228_618)">
<path fill-rule="evenodd" clip-rule="evenodd" d="M0 6.5625C0 6.2144 0.138281 5.88056 0.384422 5.63442C0.630564 5.38828 0.964403 5.25 1.3125 5.25H26.6875C27.0356 5.25 27.3694 5.38828 27.6156 5.63442C27.8617 5.88056 28 6.2144 28 6.5625C28 6.9106 27.8617 7.24444 27.6156 7.49058C27.3694 7.73672 27.0356 7.875 26.6875 7.875H1.3125C0.964403 7.875 0.630564 7.73672 0.384422 7.49058C0.138281 7.24444 0 6.9106 0 6.5625ZM0 14C0 13.6519 0.138281 13.3181 0.384422 13.0719C0.630564 12.8258 0.964403 12.6875 1.3125 12.6875H26.6875C27.0356 12.6875 27.3694 12.8258 27.6156 13.0719C27.8617 13.3181 28 13.6519 28 14C28 14.3481 27.8617 14.6819 27.6156 14.9281C27.3694 15.1742 27.0356 15.3125 26.6875 15.3125H1.3125C0.964403 15.3125 0.630564 15.1742 0.384422 14.9281C0.138281 14.6819 0 14.3481 0 14ZM1.3125 20.125C0.964403 20.125 0.630564 20.2633 0.384422 20.5094C0.138281 20.7556 0 21.0894 0 21.4375C0 21.7856 0.138281 22.1194 0.384422 22.3656C0.630564 22.6117 0.964403 22.75 1.3125 22.75H26.6875C27.0356 22.75 27.3694 22.6117 27.6156 22.3656C27.8617 22.1194 28 21.7856 28 21.4375C28 21.0894 27.8617 20.7556 27.6156 20.5094C27.3694 20.2633 27.0356 20.125 26.6875 20.125H1.3125Z" fill="#CDAE5D"/>
</g>
<defs>
<clipPath id="clip0_228_618">
<rect width="28" height="28" fill="white"/>
</clipPath>
</defs>
</svg>
