<svg width="70" height="75" viewBox="0 0 70 75" fill="none" xmlns="http://www.w3.org/2000/svg">
<path d="M15 37.5001V23.4108C15.0391 20.6413 15.5878 17.9073 16.6147 15.3655C17.6416 12.8236 19.1266 10.5238 20.9845 8.59789C22.8424 6.67197 25.0367 5.15777 27.4418 4.14204C29.8468 3.12631 32.4153 2.62903 35 2.67868C37.5847 2.62903 40.1532 3.12631 42.5582 4.14204C44.9633 5.15777 47.1576 6.67197 49.0155 8.59789C50.8734 10.5238 52.3584 12.8236 53.3853 15.3655C54.4122 17.9073 54.9609 20.6413 55 23.4108V37.5001M45 65.6251C47.6522 65.6251 50.1957 64.4963 52.0711 62.487C53.9464 60.4776 55 57.7524 55 54.9108V42.8572M45 65.6251C45 67.4011 44.3415 69.1044 43.1694 70.3602C41.9973 71.616 40.4076 72.3215 38.75 72.3215H31.25C29.5924 72.3215 28.0027 71.616 26.8306 70.3602C25.6585 69.1044 25 67.4011 25 65.6251C25 63.8491 25.6585 62.1458 26.8306 60.89C28.0027 59.6342 29.5924 58.9287 31.25 58.9287H38.75C40.4076 58.9287 41.9973 59.6342 43.1694 60.89C44.3415 62.1458 45 63.8491 45 65.6251ZM7.5 29.4644H12.5C13.163 29.4644 13.7989 29.7466 14.2678 30.2489C14.7366 30.7513 15 31.4326 15 32.143V48.2144C15 48.9248 14.7366 49.6061 14.2678 50.1084C13.7989 50.6108 13.163 50.893 12.5 50.893H7.5C6.17392 50.893 4.90215 50.3285 3.96447 49.3239C3.02678 48.3192 2.5 46.9566 2.5 45.5358V34.8215C2.5 33.4007 3.02678 32.0381 3.96447 31.0335C4.90215 30.0288 6.17392 29.4644 7.5 29.4644ZM62.5 50.893H57.5C56.837 50.893 56.2011 50.6108 55.7322 50.1084C55.2634 49.6061 55 48.9248 55 48.2144V32.143C55 31.4326 55.2634 30.7513 55.7322 30.2489C56.2011 29.7466 56.837 29.4644 57.5 29.4644H62.5C63.8261 29.4644 65.0979 30.0288 66.0355 31.0335C66.9732 32.0381 67.5 33.4007 67.5 34.8215V45.5358C67.5 46.9566 66.9732 48.3192 66.0355 49.3239C65.0979 50.3285 63.8261 50.893 62.5 50.893Z" stroke="#C0AF17" stroke-width="3" stroke-linecap="round" stroke-linejoin="round"/>
</svg>
