<svg width="75" height="75" viewBox="0 0 75 75" fill="none" xmlns="http://www.w3.org/2000/svg">
<path fill-rule="evenodd" clip-rule="evenodd" d="M8.03561 4.17859C7.01263 4.17859 6.03155 4.58497 5.3082 5.30832C4.58484 6.03167 4.17847 7.01275 4.17847 8.03573V66.9643C4.17847 67.9873 4.58484 68.9684 5.3082 69.6917C6.03155 70.4151 7.01263 70.8214 8.03561 70.8214H17.2499V4.17859H8.03561ZM8.03561 1.17859C6.21698 1.17859 4.47284 1.90104 3.18688 3.187C1.90091 4.47296 1.17847 6.2171 1.17847 8.03573V66.9643C1.17847 68.7829 1.90091 70.5271 3.18688 71.813C4.47284 73.099 6.21698 73.8214 8.03561 73.8214H42.857C43.6855 73.8214 44.357 73.1499 44.357 72.3214C44.357 71.493 43.6855 70.8214 42.857 70.8214H20.2499V4.17859H48.2142C49.0426 4.17859 49.7142 3.50702 49.7142 2.67859C49.7142 1.85016 49.0426 1.17859 48.2142 1.17859H8.03561ZM64.2856 1.17859C64.8538 1.17859 65.3732 1.49959 65.6273 2.00777L73.663 18.0792C73.7671 18.2875 73.8213 18.5171 73.8213 18.75V64.2857C73.8213 66.8148 72.8167 69.2402 71.0284 71.0285C69.2401 72.8168 66.8146 73.8214 64.2856 73.8214C61.7566 73.8214 59.3311 72.8168 57.5428 71.0285C55.7545 69.2402 54.7499 66.8148 54.7499 64.2857V18.75C54.7499 18.5171 54.8041 18.2875 54.9083 18.0792L62.944 2.00777C63.1981 1.49959 63.7175 1.17859 64.2856 1.17859ZM57.7499 52.3929V64.2857C57.7499 66.0191 58.4385 67.6815 59.6642 68.9072C60.8898 70.1329 62.5522 70.8214 64.2856 70.8214C66.019 70.8214 67.6814 70.1329 68.9071 68.9072C70.1327 67.6815 70.8213 66.0191 70.8213 64.2857V52.3929H57.7499ZM70.8213 49.3929H57.7499V19.1041L64.2856 6.03269L70.8213 19.1041V49.3929ZM30.6428 21.4286C30.6428 20.6002 31.3143 19.9286 32.1428 19.9286H42.857C43.6855 19.9286 44.357 20.6002 44.357 21.4286C44.357 22.257 43.6855 22.9286 42.857 22.9286H32.1428C31.3143 22.9286 30.6428 22.257 30.6428 21.4286Z" fill="#C0AF17"/>
<rect x="1" y="1" width="73" height="73" stroke="black" stroke-width="2"/>
</svg>
