<svg width="56" height="79" viewBox="0 0 56 79" fill="none" xmlns="http://www.w3.org/2000/svg">
<path d="M2 55.182L2 64.7275C2 65.27 2.32871 65.7903 2.91383 66.1738C3.49894 66.5574 4.29252 66.7729 5.12 66.7729H50.88C51.2897 66.7729 51.6954 66.72 52.074 66.6172C52.4525 66.5145 52.7965 66.3638 53.0862 66.1738C53.3759 65.9839 53.6057 65.7584 53.7625 65.5103C53.9193 65.2621 54 64.9961 54 64.7275V55.182C54 54.9134 53.9193 54.6474 53.7625 54.3993C53.6057 54.1511 53.3759 53.9256 53.0862 53.7357C52.7965 53.5457 52.4525 53.3951 52.074 53.2923C51.6954 53.1895 51.2897 53.1366 50.88 53.1366H5.12C4.29252 53.1366 3.49894 53.3521 2.91383 53.7357C2.32871 54.1193 2 54.6396 2 55.182ZM2 14.2729L2 23.8184C2 24.3609 2.32871 24.8812 2.91383 25.2648C3.49894 25.6484 4.29252 25.8639 5.12 25.8639H50.88C51.2897 25.8639 51.6954 25.811 52.074 25.7082C52.4525 25.6054 52.7965 25.4547 53.0862 25.2648C53.3759 25.0748 53.6057 24.8493 53.7625 24.6012C53.9193 24.353 54 24.087 54 23.8184V14.2729C54 14.0043 53.9193 13.7384 53.7625 13.4902C53.6057 13.242 53.3759 13.0165 53.0862 12.8266C52.7965 12.6367 52.4525 12.486 52.074 12.3832C51.6954 12.2804 51.2897 12.2275 50.88 12.2275H5.12C4.29252 12.2275 3.49894 12.443 2.91383 12.8266C2.32871 13.2102 2 13.7305 2 14.2729Z" stroke="#C0AF17" stroke-width="3" stroke-linecap="round" stroke-linejoin="round"/>
<path d="M28.0001 53.1364L28.0001 25.8636M40.4801 77H15.5201C14.6927 77 13.8991 76.7845 13.314 76.4009C12.7289 76.0173 12.4001 75.497 12.4001 74.9545V68.8182C12.4001 68.2757 12.7289 67.7554 13.314 67.3718C13.8991 66.9882 14.6927 66.7727 15.5201 66.7727H40.4801C41.3076 66.7727 42.1012 66.9882 42.6863 67.3718C43.2714 67.7554 43.6001 68.2757 43.6001 68.8182V74.9545C43.6001 75.497 43.2714 76.0173 42.6863 76.4009C42.1012 76.7845 41.3076 77 40.4801 77ZM40.4801 2H15.5201C14.6927 2 13.8991 2.2155 13.314 2.5991C12.7289 2.98269 12.4001 3.50297 12.4001 4.04545L12.4001 10.1818C12.4001 10.7243 12.7289 11.2446 13.314 11.6282C13.8991 12.0118 14.6927 12.2273 15.5201 12.2273H40.4801C41.3076 12.2273 42.1012 12.0118 42.6863 11.6282C43.2714 11.2446 43.6001 10.7243 43.6001 10.1818V4.04545C43.6001 3.50297 43.2714 2.98269 42.6863 2.5991C42.1012 2.2155 41.3076 2 40.4801 2Z" stroke="#C0AF17" stroke-width="3" stroke-linecap="round" stroke-linejoin="round"/>
</svg>
