<svg width="75" height="75" viewBox="0 0 75 75" fill="none" xmlns="http://www.w3.org/2000/svg">
<g clip-path="url(#clip0_369_107)">
<path d="M4.20541 0.000559941C3.34755 0.0319488 2.77586 0.898846 3.08483 1.69978L5.68727 8.50881L3.90513 15.0224C3.73574 15.6416 4.06284 16.2884 4.66193 16.519L20.0542 22.4222C21.2394 22.8845 22.2771 21.4873 21.4922 20.4862L15.6624 12.9375L17.8937 7.79835C18.1615 7.18433 17.8978 6.46832 17.2956 6.17482L4.80107 0.129961C4.6177 0.0391034 4.41484 -0.00534703 4.21028 0.000512633L4.20541 0.000559941ZM40.5001 0.000559941C39.7717 0.0147331 39.2501 0.55303 39.2501 1.24567V3.74568C39.2501 4.57873 39.8753 4.99703 40.5001 4.99807C41.1248 4.99703 41.75 4.57854 41.75 3.74568V1.24567C41.75 0.55303 41.2283 0.0141189 40.5001 0.000559941ZM76.199 0.130008L63.7045 6.17486C63.1023 6.46835 62.8385 7.18436 63.1063 7.7984L65.3377 12.9375L59.5079 20.4862C58.7229 21.4873 59.7607 22.8845 60.9458 22.4223L76.3381 16.519C76.9372 16.2885 77.2643 15.6416 77.0949 15.0224L75.3128 8.50885L77.9152 1.69983C78.2248 0.897028 77.6497 0.0287615 76.7898 0.000583595C76.5852 -0.00529827 76.3823 0.0391488 76.199 0.130008ZM32.8442 4.11673L34.6165 5.8794C35.8498 7.02634 37.5293 5.29825 36.3889 4.11673L34.6165 2.34428C34.3812 2.10239 34.0776 1.9805 33.7401 1.98053C32.6102 1.9711 32.0641 3.34297 32.8442 4.11673ZM46.3835 2.34433L44.6111 4.11678C43.4708 5.2983 45.1502 7.02639 46.3835 5.87945L48.1559 4.11678C48.9359 3.34302 48.3898 1.97186 47.26 1.98058C46.9226 1.98055 46.6189 2.10244 46.3835 2.34433ZM23.3671 9.62452L23.7356 9.99538L23.3671 10.3639C22.089 11.543 23.9633 13.4095 25.137 12.1266L25.5031 11.7604L25.8669 12.1266C27.0416 13.3564 28.8626 11.5454 27.6393 10.3639L27.2684 9.99538L27.6393 9.62452C28.4509 8.82681 27.8613 7.44771 26.7238 7.48347C26.4002 7.49292 26.0927 7.62946 25.8669 7.8619L25.5031 8.22804L25.137 7.8619C24.9031 7.61859 24.5821 7.48064 24.18 7.48104C23.0568 7.58869 22.6037 8.88364 23.3671 9.62452ZM55.8557 7.86175L55.4896 8.2279L55.1258 7.86175C54.9 7.62931 54.5928 7.49372 54.2689 7.48333C53.1315 7.44554 52.5418 8.82671 53.3534 9.62442L53.7248 9.99529L53.3534 10.3638C52.1287 11.5453 53.9511 13.3578 55.1258 12.1265L55.4896 11.7604L55.8557 12.1265C57.0295 13.4094 58.9037 11.5429 57.6256 10.3638L57.2571 9.99529L57.6256 9.62442C58.389 8.88355 57.936 7.58845 56.8127 7.48092C56.4107 7.4805 56.0896 7.61892 55.8557 7.86175ZM38.2907 12.7543L36.5232 14.5243C35.7554 15.2921 35.283 16.244 35.1219 17.2465C34.1721 17.3565 33.2693 17.7782 32.5463 18.5014C31.6822 19.3655 31.2495 20.5005 31.2646 21.641C30.1227 21.6268 28.9898 22.0553 28.1251 22.9202C27.2617 23.7838 26.829 24.9145 26.8434 26.055C25.7031 26.0408 24.5723 26.4731 23.7089 27.3367C22.8435 28.2021 22.4156 29.2968 22.4198 30.4715C21.266 30.469 20.1369 30.9113 19.2877 31.7605C17.9901 33.0581 17.6725 34.9876 18.3576 36.5846C17.7693 37.8763 17.5821 39.2692 17.259 40.591C16.9911 41.687 16.6571 42.713 16.0896 43.6036C15.8647 43.425 15.5807 43.3197 15.2937 43.323C14.9569 43.3325 14.6323 43.4742 14.4027 43.7208L4.24975 53.7501L25.4997 75L34.7996 63.9744C35.2286 63.4987 35.2423 62.7866 34.7901 62.285C36.2897 60.9743 38.4826 59.3497 40.991 57.4804C42.2489 58.0266 43.631 58.2268 44.9117 58.5399C46.0066 58.8073 47.0318 59.1404 47.9218 59.7069C47.5254 60.1825 47.5599 60.9024 47.9927 61.3524L59.2497 72.5L77.9997 51.2501L67.4351 41.9019C67.1894 41.669 66.8601 41.5457 66.522 41.5599C66.2301 41.5694 65.9459 41.6941 65.7286 41.8896C64.7571 40.7641 63.7136 39.3191 62.5452 37.6709C63.3636 35.9753 63.0582 33.9921 61.7127 32.6466C61.0417 31.9756 60.221 31.5617 59.3446 31.4186C59.6767 29.9927 59.2846 28.4459 58.1802 27.3415C57.511 26.6723 56.6859 26.2576 55.8096 26.1159C56.1422 24.6868 55.7501 23.1413 54.6452 22.0363C53.7959 21.187 52.657 20.7473 51.5105 20.7497C51.5011 19.6102 51.09 18.4784 50.2264 17.615C49.3772 16.7657 48.2725 16.3332 47.1504 16.3332C47.0455 16.3332 46.9279 16.3307 46.8235 16.338C46.8424 15.0289 46.3558 13.7462 45.3636 12.7541C44.392 11.7824 43.1109 11.2868 41.8284 11.2869C40.5458 11.2871 39.2623 11.7827 38.2907 12.7543ZM43.5962 14.5243C44.5508 15.479 44.5892 17.0472 43.6104 18.0424C43.0156 18.6365 42.422 19.2319 41.8283 19.827C40.8336 20.8217 39.2543 20.7906 38.2908 19.827C37.3169 18.8531 37.2962 17.2865 38.2908 16.2919L40.0608 14.5243C40.5581 14.027 41.2026 13.7846 41.809 13.7846C42.4446 13.7846 43.0989 14.027 43.5962 14.5243ZM48.4544 19.3876C49.1834 20.1166 49.2042 21.2867 48.4544 22.0365L44.4775 26.0135C43.2457 27.1949 45.0703 29.017 46.2499 27.7835L50.2268 23.8065C50.9765 23.0567 52.1551 23.086 52.8756 23.8065C53.5961 24.5269 53.6254 25.7056 52.8756 26.4553C51.3873 27.9363 50.3092 29.0261 48.8987 30.4324C47.6689 31.6071 49.4799 33.4282 50.6613 32.2048L53.8057 29.0676C54.538 28.3769 55.6827 28.3789 56.4081 29.1054C57.1335 29.8308 57.1579 31.0119 56.4081 31.7616C54.9406 33.229 53.8211 34.3526 52.4313 35.7387C51.208 36.9202 53.0289 38.7312 54.2036 37.5014C55.2339 36.4711 56.2641 35.4408 57.2943 34.4106C58.0441 33.6607 59.2226 33.69 59.9431 34.4106C60.6782 35.1457 60.6929 36.3097 59.9431 37.0594L51.5451 45.4553C44.7815 52.2192 37.1836 56.7768 33.0182 60.5138L17.8919 45.387C18.662 44.4584 19.3851 42.5901 19.6863 41.1829C19.8908 40.3464 20.0458 39.5522 20.2185 38.8759L21.0607 39.7157C22.7617 41.4118 25.5436 41.4142 27.242 39.7157C27.9141 39.0436 28.3225 38.2295 28.4627 37.35C29.8925 37.6854 31.4439 37.2862 32.5494 36.1805C33.4128 35.3171 33.8423 34.1854 33.8262 33.0434C34.9682 33.0575 36.1048 32.6253 36.9681 31.7616C37.831 30.8988 38.2678 29.7609 38.2523 28.6196C39.395 28.6338 40.5228 28.2067 41.3869 27.3428C42.6858 26.0438 43.0024 24.1265 42.3146 22.5259C42.6623 22.3525 42.9454 22.1626 43.252 21.9033C43.5378 21.6974 44.9495 20.2456 45.8056 19.3887C46.1807 19.0141 46.6566 18.8273 47.1312 18.8267C47.6058 18.8261 48.0795 19.0127 48.4544 19.3876ZM36.5239 21.597C37.4025 22.4757 38.5379 22.9655 39.7292 23.0521C40.3323 23.735 40.334 24.8496 39.6144 25.5691C38.8991 26.2844 37.7178 26.319 36.968 25.5691C36.0896 24.6965 35.1127 23.7204 34.2997 22.9105C33.5612 22.1604 33.6025 20.9711 34.3092 20.264C34.5766 19.9966 34.9624 19.793 35.3469 19.7392C35.5871 20.4152 35.9856 21.0588 36.5239 21.597ZM32.5445 24.6878C33.4289 25.5717 34.3133 26.4558 35.1982 27.344C35.9417 28.0965 35.9095 29.2841 35.2007 29.9929C34.4751 30.7186 33.2944 30.7378 32.5446 29.9882L29.8958 27.3368C29.1461 26.587 29.1705 25.4133 29.8958 24.6879C30.271 24.3128 30.7491 24.1361 31.2238 24.1361C31.6986 24.136 32.1696 24.3127 32.5445 24.6878ZM28.1258 29.1067L30.777 31.7556C31.5268 32.5054 31.5025 33.6912 30.7818 34.4118C30.0612 35.1324 28.8705 35.1616 28.1208 34.4118C27.2394 33.5234 26.3602 32.6451 25.472 31.7605C24.7222 31.0107 24.754 29.8296 25.4768 29.1067C25.8514 28.7316 26.3227 28.5574 26.7976 28.5574C27.2725 28.5574 27.7509 28.7317 28.1258 29.1067ZM22.379 32.9763C22.8536 32.9763 23.3346 33.1483 23.7095 33.5232L25.4697 35.2956C26.2194 36.0454 26.2121 37.202 25.4697 37.9445C24.7443 38.6699 23.5731 38.6943 22.8233 37.9445L21.0607 36.1818C20.311 35.432 20.311 34.2729 21.0607 33.5232C21.4354 33.1481 21.9044 32.9763 22.379 32.9763ZM60.8903 39.6535C61.9455 41.1392 62.8646 42.4268 63.9615 43.65L49.7092 57.9028C48.3557 56.9144 46.8497 56.4425 45.5029 56.1132C44.7606 55.9318 44.0569 55.792 43.4375 55.6396C46.646 53.1946 50.1575 50.3867 53.3175 47.2266L60.8903 39.6535Z" fill="#C0AF17"/>
</g>
<rect x="1" y="1" width="73" height="73" stroke="black" stroke-width="2"/>
<defs>
<clipPath id="clip0_369_107">
<rect width="75" height="75" fill="white"/>
</clipPath>
</defs>
</svg>
