<svg width="85" height="96" viewBox="0 0 85 96" fill="none" xmlns="http://www.w3.org/2000/svg">
<path opacity="0.5" d="M61.67 13.79H52.64V37.45C52.64 41.1367 51.73 44.4733 49.91 47.46C48.09 50.4 45.5467 52.71 42.28 54.39C39.0133 56.07 35.28 56.91 31.08 56.91C26.7867 56.91 23.0067 56.07 19.74 54.39C16.4733 52.71 13.9533 50.4 12.18 47.46C10.4067 44.52 9.52 41.1833 9.52 37.45V13.79H0.49V7.98H25.27V13.79H16.8L16.73 37.24C16.73 39.8533 17.3367 42.21 18.55 44.31C19.7633 46.3633 21.4433 47.9733 23.59 49.14C25.7833 50.3067 28.28 50.89 31.08 50.89C33.8333 50.89 36.3067 50.3067 38.5 49.14C40.6933 47.9733 42.3967 46.34 43.61 44.24C44.8233 42.14 45.43 39.7833 45.43 37.17L45.36 13.79H36.82V7.98H61.67V13.79Z" fill="#E4A951"/>
<path d="M84.6054 38.79H76.5554L56.8854 81.91H53.3154L33.7854 38.79H25.7354V32.98H49.0454V38.79H41.4154L55.5554 71.69L69.4154 38.79H60.9454V32.98H84.6054V38.79Z" fill="#E4A951"/>
</svg>
