<svg width="19" height="19" viewBox="0 0 19 19" fill="none" xmlns="http://www.w3.org/2000/svg">
<path d="M17.5617 12.5263L13.5188 10.7139L13.5034 10.707C13.2406 10.5938 12.9536 10.5481 12.6686 10.5744C12.3837 10.6006 12.1098 10.6979 11.8721 10.8573C11.8388 10.8796 11.8067 10.9037 11.776 10.9294L9.8606 12.5606C8.74451 11.9554 7.59149 10.8118 6.98537 9.70943L8.62174 7.76399C8.64804 7.73259 8.67241 7.69962 8.69471 7.66526C8.84992 7.42844 8.94415 7.1569 8.96902 6.87485C8.99388 6.59279 8.94861 6.30896 8.83723 6.04864C8.83458 6.04365 8.83229 6.03849 8.83036 6.03318L7.01885 1.98348C6.87016 1.64481 6.61638 1.363 6.29507 1.17978C5.97377 0.99655 5.60201 0.921633 5.23482 0.966114C3.98854 1.12983 2.84448 1.74161 2.01629 2.68718C1.1881 3.63275 0.732433 4.84746 0.734381 6.10444C0.734381 13.1109 6.43419 18.8108 13.4407 18.8108C14.6977 18.8127 15.9124 18.357 16.858 17.5288C17.8035 16.7007 18.4153 15.5566 18.579 14.3103C18.6235 13.9431 18.5486 13.5714 18.3654 13.2501C18.1821 12.9288 17.9003 12.675 17.5617 12.5263ZM13.4407 16.7503C10.6183 16.7469 7.91246 15.6242 5.91672 13.6284C3.92098 11.6327 2.79827 8.92685 2.79486 6.10444C2.7929 5.39314 3.03438 4.70258 3.47918 4.14751C3.92399 3.59245 4.54533 3.20629 5.23997 3.05321L6.85573 6.65906L5.21078 8.61823C5.18419 8.64992 5.15953 8.68317 5.13694 8.71782C4.97481 8.96556 4.87949 9.251 4.86023 9.54645C4.84098 9.8419 4.89844 10.1373 5.02705 10.404C5.83579 12.0592 7.50221 13.7145 9.17463 14.5249C9.44309 14.6522 9.73999 14.7077 10.0363 14.6858C10.3326 14.664 10.6182 14.5657 10.8651 14.4005C10.8983 14.3781 10.9301 14.3537 10.9604 14.3275L12.8861 12.6903L16.4919 14.3052C16.3388 14.9998 15.9527 15.6211 15.3976 16.0659C14.8425 16.5108 14.152 16.7522 13.4407 16.7503Z" fill="#CDAE5D"/>
</svg>
