<svg width="75" height="75" viewBox="0 0 75 75" fill="none" xmlns="http://www.w3.org/2000/svg">
<path fill-rule="evenodd" clip-rule="evenodd" d="M26.458 23.7462L25.2753 27.4038H21.6349C19.7223 27.4038 17.888 28.1636 16.5356 29.5161C15.1831 30.8685 14.4233 32.7028 14.4233 34.6154V51.9231C14.4233 52.8701 14.6099 53.8079 14.9723 54.6828C15.3347 55.5578 15.8659 56.3528 16.5356 57.0224C17.2052 57.6921 18.0002 58.2233 18.8751 58.5857C19.7501 58.9481 20.6878 59.1346 21.6349 59.1346H53.3656C54.3127 59.1346 55.2504 58.9481 56.1254 58.5857C57.0003 58.2233 57.7953 57.6921 58.465 57.0224C59.1346 56.3528 59.6658 55.5578 60.0282 54.6828C60.3907 53.8079 60.5772 52.8701 60.5772 51.9231V34.6154C60.5772 32.7028 59.8174 30.8685 58.465 29.5161C57.1125 28.1636 55.2783 27.4038 53.3656 27.4038H49.7224L48.5426 23.7462C48.0739 22.2942 47.1568 21.0283 45.9231 20.1306C44.6895 19.2328 43.2029 18.7495 41.6772 18.75H33.3205C31.7947 18.7495 30.3082 19.2328 29.0745 20.1306C27.8409 21.0283 26.9238 22.2942 26.4551 23.7462H26.458ZM21.6349 30.2885H27.3753L29.2012 24.6346C29.482 23.763 30.0321 23.003 30.7724 22.4639C31.5126 21.9248 32.4047 21.6344 33.3205 21.6346H41.6801C42.5953 21.6351 43.4868 21.9257 44.2264 22.4647C44.9661 23.0038 45.5157 23.7635 45.7964 24.6346L47.6224 30.2885H53.3656C54.5132 30.2885 55.6138 30.7443 56.4252 31.5558C57.2367 32.3672 57.6926 33.4678 57.6926 34.6154V51.9231C57.6926 53.0706 57.2367 54.1712 56.4252 54.9827C55.6138 55.7941 54.5132 56.25 53.3656 56.25H21.6349C20.4873 56.25 19.3867 55.7941 18.5753 54.9827C17.7638 54.1712 17.308 53.0706 17.308 51.9231V34.6154C17.308 33.4678 17.7638 32.3672 18.5753 31.5558C19.3867 30.7443 20.4873 30.2885 21.6349 30.2885Z" fill="#C0AF17"/>
<path fill-rule="evenodd" clip-rule="evenodd" d="M28.8462 41.8269C28.8462 44.1221 29.7579 46.3232 31.3808 47.9461C33.0038 49.569 35.2049 50.4808 37.5 50.4808C39.7952 50.4808 41.9963 49.569 43.6192 47.9461C45.2421 46.3232 46.1539 44.1221 46.1539 41.8269C46.1539 39.5318 45.2421 37.3307 43.6192 35.7077C41.9963 34.0848 39.7952 33.1731 37.5 33.1731C35.2049 33.1731 33.0038 34.0848 31.3808 35.7077C29.7579 37.3307 28.8462 39.5318 28.8462 41.8269ZM43.2693 41.8269C43.2693 43.357 42.6614 44.8245 41.5795 45.9064C40.4976 46.9883 39.0301 47.5962 37.5 47.5962C35.9699 47.5962 34.5025 46.9883 33.4206 45.9064C32.3386 44.8245 31.7308 43.357 31.7308 41.8269C31.7308 40.2968 32.3386 38.8294 33.4206 37.7475C34.5025 36.6655 35.9699 36.0577 37.5 36.0577C39.0301 36.0577 40.4976 36.6655 41.5795 37.7475C42.6614 38.8294 43.2693 40.2968 43.2693 41.8269Z" fill="#C0AF17"/>
<path fill-rule="evenodd" clip-rule="evenodd" d="M37.5001 70.6732C55.8203 70.6732 70.6732 55.8203 70.6732 37.5001C70.6732 19.1799 55.8203 4.327 37.5001 4.327C19.1799 4.327 4.327 19.1799 4.327 37.5001C4.327 55.8203 19.1799 70.6732 37.5001 70.6732ZM37.5001 73.5578C57.4155 73.5578 73.5578 57.4155 73.5578 37.5001C73.5578 17.5847 57.4155 1.44238 37.5001 1.44238C17.5847 1.44238 1.44238 17.5847 1.44238 37.5001C1.44238 57.4155 17.5847 73.5578 37.5001 73.5578Z" fill="#C0AF17"/>
</svg>
